<?xml version="1.0" encoding="ISO-8859-1" standalone="no"?>
<!DOCTYPE svg PUBLIC "-//W3C//DTD SVG 20000303 Stylable//EN"
"http://www.w3.org/TR/2000/03/WD-SVG-20000303/DTD/svg-20000303-stylable.dtd">
<svg width="8in" height="8in" viewBox="0 0 1 1" preserveAspectRatio="none">
<title>SVG drawing</title>
<desc>This was produced by version 4.1 of GNU libplot, a free library for exporting 2-D vector graphics.</desc>
<rect x="0" y="0" width="1" height="1" style="stroke:none;fill:white;"/>
<g transform="translate(-0.03125,1.1875) scale(1,-1) scale(0.0017361) " xml:space="preserve" style="stroke:black;stroke-linecap:butt;stroke-linejoin:miter;stroke-miterlimit:10.433;stroke-dasharray:none;stroke-dashoffset:0;stroke-opacity:1;fill:none;fill-rule:even-odd;fill-opacity:1;font-style:normal;font-variant:normal;font-weight:normal;font-stretch:normal;font-size-adjust:none;letter-spacing:normal;word-spacing:normal;text-anchor:start;">
<polygon points="1.4998,1.0002 586.5,1.0002 586.5,325 1.4998,325 " style="stroke:#a5dbff;stroke-width:0;fill:#a5dbff;"/>
<polygon points="1.4998,1.0002 586.5,1.0002 586.5,325 1.4998,325 " style="stroke:#87cfff;stroke-width:0.45;"/>
<polygon points="483,37 555,37 555,73 483,73 " style="stroke:#ffff99;stroke-width:0;fill:#ffff99;"/>
<polygon points="483,37 555,37 555,73 483,73 " style="stroke-width:0.45;"/>
<polygon points="33,145 141,145 141,181 33,181 " style="stroke:#ffff99;stroke-width:0;fill:#ffff99;"/>
<polygon points="33,145 141,145 141,181 33,181 " style="stroke-width:0.45;"/>
<polygon points="33,73 141,73 141,109 33,109 " style="stroke:#ffff99;stroke-width:0;fill:#ffff99;"/>
<polygon points="33,73 141,73 141,109 33,109 " style="stroke-width:0.45;"/>
<polygon points="483,91 555,91 555,127 483,127 " style="stroke:#ffff99;stroke-width:0;fill:#ffff99;"/>
<polygon points="483,91 555,91 555,127 483,127 " style="stroke-width:0.45;"/>
<polygon points="33,217 141,217 141,253 33,253 " style="stroke:#ffff99;stroke-width:0;fill:#ffff99;"/>
<polygon points="33,217 141,217 141,253 33,253 " style="stroke-width:0.45;"/>
<polygon points="195,109 285,109 285,217 195,217 " style="stroke:#ffff99;stroke-width:0;fill:#ffff99;"/>
<polygon points="195,109 285,109 285,217 195,217 " style="stroke-width:0.45;"/>
<polygon points="321,181 447,181 447,217 321,217 " style="stroke:#ffff99;stroke-width:0;fill:#ffff99;"/>
<polygon points="321,181 447,181 447,217 321,217 " style="stroke-width:0.45;"/>
<polygon points="321,73 447,73 447,109 321,109 " style="stroke:#ffff99;stroke-width:0;fill:#ffff99;"/>
<polygon points="321,73 447,73 447,109 321,109 " style="stroke-width:0.45;"/>
<polygon points="483,199 555,199 555,217 483,217 " style="stroke:#ffff99;stroke-width:0;fill:#ffff99;"/>
<polygon points="483,199 555,199 555,217 483,217 " style="stroke-width:0.45;"/>
<polygon points="483,163 555,163 555,181 483,181 " style="stroke:#ffff99;stroke-width:0;fill:#ffff99;"/>
<polygon points="483,163 555,163 555,181 483,181 " style="stroke-width:0.45;"/>
<line x1="141" y1="235" x2="195" y2="199" style="stroke-width:0.45;"/>
<polygon points="188.64,205.42 193.62,199.9 186.66,202.42 187.68,203.92 " style="stroke-width:0;fill:black;"/>
<polygon points="188.64,205.42 193.62,199.9 186.66,202.42 187.68,203.92 " style="stroke-width:0.45;"/>
<line x1="447" y1="100" x2="483" y2="109" style="stroke-width:0.45;"/>
<polygon points="474,108.58 481.38,108.64 474.9,105.1 474.42,106.84 " style="stroke-width:0;fill:black;"/>
<polygon points="474,108.58 481.38,108.64 474.9,105.1 474.42,106.84 " style="stroke-width:0.45;"/>
<line x1="447" y1="82" x2="483" y2="55" style="stroke-width:0.45;"/>
<polygon points="477,61.72 481.68,56.02 474.84,58.84 475.92,60.28 " style="stroke-width:0;fill:black;"/>
<polygon points="477,61.72 481.68,56.02 474.84,58.84 475.92,60.28 " style="stroke-width:0.45;"/>
<line x1="447" y1="208" x2="483" y2="208" style="stroke-width:0.45;"/>
<polygon points="474.18,209.8 481.38,208 474.18,206.2 474.18,208 " style="stroke-width:0;fill:black;"/>
<polygon points="474.18,209.8 481.38,208 474.18,206.2 474.18,208 " style="stroke-width:0.45;"/>
<polyline points="447,190 465,190 465,172 483,172 " style="stroke-width:0.45;"/>
<polygon points="474.18,173.8 481.38,172 474.18,170.2 474.18,172 " style="stroke-width:0;fill:black;"/>
<polygon points="474.18,173.8 481.38,172 474.18,170.2 474.18,172 " style="stroke-width:0.45;"/>
<line x1="141" y1="91" x2="195" y2="127" style="stroke-width:0.45;"/>
<polygon points="186.66,123.58 193.62,126.16 188.64,120.58 187.68,122.08 " style="stroke-width:0;fill:black;"/>
<polygon points="186.66,123.58 193.62,126.16 188.64,120.58 187.68,122.08 " style="stroke-width:0.45;"/>
<line x1="141" y1="163" x2="195" y2="163" style="stroke-width:0.45;"/>
<polygon points="186.18,164.8 193.38,163 186.18,161.2 186.18,163 " style="stroke-width:0;fill:black;"/>
<polygon points="186.18,164.8 193.38,163 186.18,161.2 186.18,163 " style="stroke-width:0.45;"/>
<line x1="285" y1="145" x2="321" y2="91" style="stroke-width:0.45;"/>
<polygon points="317.58,99.34 320.1,92.38 314.58,97.36 316.08,98.32 " style="stroke-width:0;fill:black;"/>
<polygon points="317.58,99.34 320.1,92.38 314.58,97.36 316.08,98.32 " style="stroke-width:0.45;"/>
<line x1="285" y1="199" x2="321" y2="199" style="stroke-width:0.45;"/>
<polygon points="312.18,200.8 319.38,199 312.18,197.2 312.18,199 " style="stroke-width:0;fill:black;"/>
<polygon points="312.18,200.8 319.38,199 312.18,197.2 312.18,199 " style="stroke-width:0.45;"/>
<text transform="translate(234.62,289) scale(1,-1) " style="font-family:Helvetica-Bold,'Helvetica',sans-serif;font-weight:bold;font-size:12.6;stroke:none;fill:black;">Magick++ Data Structures</text>
<text transform="translate(54.132,257.5) scale(1,-1) " style="font-family:Times-Roman,'Times Roman',serif;font-size:9;stroke:none;fill:black;">class Magick::Image</text>
<text transform="translate(49.632,185.5) scale(1,-1) " style="font-family:Times-Roman,'Times Roman',serif;font-size:9;stroke:none;fill:black;">class Magick::Image</text>
<text transform="translate(49.632,113.5) scale(1,-1) " style="font-family:Times-Roman,'Times Roman',serif;font-size:9;stroke:none;fill:black;">class Magick::Image</text>
<text transform="translate(196.13,226) scale(1,-1) " style="font-family:Times-Roman,'Times Roman',serif;font-size:9;stroke:none;fill:black;">class Magick::ImageRef</text>
<text transform="translate(343.63,221.5) scale(1,-1) " style="font-family:Times-Roman,'Times Roman',serif;font-size:9;stroke:none;fill:black;">struct MagickLib::Image</text>
<text transform="translate(348.13,113.5) scale(1,-1) " style="font-family:Times-Roman,'Times Roman',serif;font-size:9;stroke:none;fill:black;">class Magick::Options</text>
<text transform="translate(488.63,167.5) scale(1,-1) " style="font-family:Times-Roman,'Times Roman',serif;font-size:9;stroke:none;fill:black;">Image Attributes</text>
<text transform="translate(466.63,131.5) scale(1,-1) " style="font-family:Times-Roman,'Times Roman',serif;font-size:9;stroke:none;fill:black;">struct MagickLib::ImageInfo</text>
<text transform="translate(461.64,77.5) scale(1,-1) " style="font-family:Times-Roman,'Times Roman',serif;font-size:9;stroke:none;fill:black;">struct MagickLib::QuantizeInfo</text>
<text transform="translate(498.13,208) scale(1,-1) " style="font-family:Times-Roman,'Times Roman',serif;font-size:9;stroke:none;fill:black;">Image Data</text>
<text transform="translate(55.322,230.5) scale(1,-1) scale(1) " style="font-family:Times-Roman,'Times Roman',serif;font-size:7.2;stroke:none;fill:black;">class ImageRef* _imageRef</text>
<text transform="translate(55.322,158.5) scale(1,-1) scale(1) " style="font-family:Times-Roman,'Times Roman',serif;font-size:7.2;stroke:none;fill:black;">class ImageRef* _imageRef</text>
<text transform="translate(55.322,86.5) scale(1,-1) scale(1) " style="font-family:Times-Roman,'Times Roman',serif;font-size:7.2;stroke:none;fill:black;">class ImageRef* _imageRef</text>
<text transform="translate(199.91,194.5) scale(1,-1) scale(1) " style="font-family:Times-Roman,'Times Roman',serif;font-size:7.2;stroke:none;fill:black;">MagickLib::Image* _image</text>
<text transform="translate(201.5,145) scale(1,-1) scale(1) " style="font-family:Times-Roman,'Times Roman',serif;font-size:7.2;stroke:none;fill:black;">Magick::Options* _options</text>
<text transform="translate(241.9,118) scale(1,-1) scale(1) " style="font-family:Times-Roman,'Times Roman',serif;font-size:7.2;stroke:none;fill:black;">int _refCount</text>
<text transform="translate(337.92,95.5) scale(1,-1) scale(1) " style="font-family:Times-Roman,'Times Roman',serif;font-size:7.2;stroke:none;fill:black;">MagickLib::ImageInfo* _imageInfo</text>
<text transform="translate(323.13,82) scale(1,-1) scale(1) " style="font-family:Times-Roman,'Times Roman',serif;font-size:7.2;stroke:none;fill:black;">MagickLib::QuantizeInfo* _quantizeInfo</text>
</g>
</svg>
