/* XPM */
static char *magick[] = {
/* columns rows colors chars-per-pixel */
"70 46 16 1",
"  c #33332d",
". c #62392f",
"X c #534c38",
"o c #656253",
"O c #3a4338",
"+ c #6f70a7",
"@ c #6e9356",
"# c #a13b2c",
"$ c #dd3630",
"% c #e85159",
"& c #bb4844",
"* c #bc799c",
"= c #94a074",
"- c #f5f3ef",
"; c #a6a6ba",
": c #7d8da5",
/* pixels */
"                    OOXXX..#&&$%$%$&###########&#X         .o&:+oo+=oo",
"                     X . XX##&%$%$$#&####.#.##&&# O         #o+++Oo:oo",
"                      . XO..##&$%$$#####.##.##&&oX           o;+OOOOoo",
"                    .   .OX..##&$%########.#o#&&=oX          +;++++::o",
"                         OO..###&&####.#..#.##&=;ooO         X:;;;===o",
"                      . .    X#.#####.#.#.#o&o==:=oX         o===;=:@X",
"                    .    ..  ..#..o#.##....#oo=:==@@o        X=@==@=@o",
"                   .O. .    . ..&##X#.X#&&#oo@%==:=:@X      Oo@@@@@:@X",
"O OO.O.          . .O.O O.#&.&&#&##&#o#&%&oo&%%$%%%%*%%&.  .X@@@:=:=@o",
"  OXOOXO.... .    .O.O.OO.%&#&#&##&$%$&$$&&o%%$%$%%%%%%%%%..o;:;;;-;@o",
" O OOXXXOOO .  . OX.O O O&######&#&$$$$$$&&%%$&$%$%%%%%*%*%o-------;:@",
"   OOOXXo+++O   O .O.   #####$$##$#$$$$$$$$%$$#&$%%%%%*%%%*&;-------;;",
"    O.XX+;;;;+XOOOOOOoOo##&#$$&$$$$$$$$$$$$%##$&$%$%%%%*%%%%;---------",
"O.   OO.+;;;;;++oOOX+**%###$$$$$$$$$$$$$$#$%&$#$&$%%%*%%*%%%*---------",
"XXO. .O.O:;;;;;;++o%%%$$$$$&$$$$$$$$$$$$$$$$%$#$&&$%%%%*%***X;--------",
"XXO.OOXOo;;;;;;;;*%$$$&$$&&#$$$$$#$$$$$$$$$%$%$#$##&%*%*%*%@X---------",
"XoXXXXX.o+;;;;;+*%$%$&%$%$#$#$$$$#$$$$$$$$#$$%$$##&#%%%%*%%:X---------",
"X.oXXXXoO+++;+++$%$%$&&$#$#$$$$$$$$$$$$$$#$$$$$&$###%%***%%=@;-;====-;",
"XXX.o.XXoX+++;+&$$%$$#$$$#$$$$$$$$$$$$$$$$$$$#$&$$$##%*%*%%=@@@@====;-",
"X.oXX.o.X..++*%$%$%$&#&$%$#$$$$$$$$%%$$$$%$$$##%$$$$$%**%%%X@@=@=====;",
"XX.Xo.oXo.X++**%%$$$##$$$%$$$$$$$$%%%$###&$&$#$$$$$$$&**%%%X@==@=====;",
"o.oX.XX.o+o+;;*%%%$&#&&$$$$$$%$$$$$%$$$&&%%$$$$$$$$$$%**%%#o@@@=@@@==@",
"XXo.oXXo++++;;*%&%$$$&%#$$$$$$%%%%$%$%%%%$$&$$%$$$$$$#*%%%.X@=@@@=@==@",
".oXo.oo++++;---=*%%$$#&%$$$$$$$%%%%$$%%%$$$$$$$$$$$$$$*%%%OO@@@@@@@@@X",
"XXXoXo+:++;;-;;=o*%%%$$&$$%$$$$$$%%%%%%%$$$$$%$$$$$$$$%%%oXOX@@@@@@@O@",
"OXo.o++++;;;;;;ooo%*%%$#$$$$$$#&&%$$$$$$$$%$$$$$$$$$$%%%% X X@@@@@@@@@",
" O.Xo+++++;+;+;+.o%%**$#$$$$$$$$$&$$$$$$$$$$$$$$$$$$$%%%.  X=@@@@@@X@@",
"  OOo+++;++;+;+oo.=%%$$$$#$#$#$#$$$$$$$$$$$%$$$$$$$$%%%&  X==@@@@@@@@@",
"    Xo++;+;+;+o.oo#%%$$$$$#$$$#$$$$$$%%$$$$$$$$$####%%%O .===@X@@@@@X@",
"O OOOO++;++++ooooo&$$$$$$##$$#$#$$$$%%$$%$$%$%$####$%%o O@==@ @@@@@@@@",
"XXXoXoo+++oo.o#o&&#$$$$$$##$$&$$$$%$$$$$$$$$$$$####&%&oo=@o   @@@@@@@@",
"oooooo.o..oXXXoo=&$#$$$$$$##&$$$%$$###$$%$$$%$###.#o&o==o O   @@@@@@@@",
"ooooooooooooOOOOX&%$#$$#$####$%$$&####$$$$%$&##.#.##o&o.  OOO @@@@@@@@",
"oooooooooooooXOOO&%%$#$$$$##$%$##.#.####&$####.#..#o&&o@O@X   @@@@@@@@",
"oooooooooooooXO #&&%%$&&%%%%$%$###.#...#####..#..#o#o&oX@O OO @@@@@@@@",
"ooooooooooooooXOo#&&%&$&$$$$%$&#..#.#.#.....#.....&o&o@XXO O OX@@@@@@@",
"oooo&ooo&oooo;;@OOOXX&&$%%%$$%$&#.##.#.#.#.#..#...&oooOOOOO O X@@@@@X@",
"ooooooooooo=----=XO O.=%$$$%$&$&##..#.#.#.........&oXO   OO  OX@@@O@@X",
"ooooooooooo;-----=X X=--%&&&$%$&#.#.#........#....oX O O  OO  O@@@O@@O",
"oooooooooo+;------oX=----;&&$&&&.#.#.#.#..#.......         OOOO@@O@O@X",
"oooooo=ooo;------;@@;------&#&$&#o#...#.........ooO         O OXOO@O@ ",
"ooooooooo=--------=---------=#&###o.#...#.......=o  O        OOOOOO@@ ",
"ooo=ooooo+;-----;-------------&##...o........Xooo              OOOOXO ",
"oooooo*ooo------;--------------;@#...#..o..oX Xoo OOOOOOO      OOOOOOO",
"ooooooooo@;----=-------------------*oXX.XXXoOXXoXXO OOOO OO      OOOOO",
"ooooooooo:------=-------------------oXXXXXXXXXoXXXXO OOOOOOOOO OO@OOXO"
};
