/* XPM */
static char *magick[] = {
/* columns rows colors chars-per-pixel */
"70 46 256 2",
"   c #2b2f1e",
".  c #2d2b2b",
"X  c #2a2927",
"o  c #2d2e31",
"O  c #2d322c",
"+  c #2d362a",
"@  c #2e3430",
"#  c #332d2b",
"$  c #372c2a",
"%  c #312a30",
"&  c #33332d",
"*  c #333c2c",
"=  c #3a332d",
"-  c #3a3929",
";  c #363b33",
":  c #3b3532",
">  c #3b3b33",
",  c #363733",
"<  c #38354c",
"1  c #38422b",
"2  c #394435",
"3  c #3c464c",
"4  c #592b1f",
"5  c #44392d",
"6  c #433b32",
"7  c #463b34",
"8  c #583b36",
"9  c #4f302a",
"0  c #69362c",
"q  c #6a3a33",
"w  c #7c3a2d",
"e  c #75372c",
"r  c #793b32",
"t  c #602e24",
"y  c #433f4e",
"u  c #493e75",
"i  c #45472c",
"p  c #484637",
"a  c #485738",
"s  c #53442e",
"d  c #5c4d3c",
"f  c #574a38",
"g  c #58543b",
"h  c #43572d",
"j  c #4a6539",
"k  c #556a3c",
"l  c #654638",
"z  c #63553b",
"x  c #764337",
"c  c #79412d",
"v  c #607c3c",
"b  c #4d4b48",
"n  c #4b5844",
"m  c #594d45",
"M  c #5a5746",
"N  c #555155",
"B  c #5c5869",
"V  c #4e4d69",
"C  c #596847",
"Z  c #5a6853",
"A  c #597845",
"S  c #597350",
"D  c #655b48",
"F  c #685e55",
"G  c #77584a",
"H  c #73544d",
"J  c #6b5a6b",
"K  c #68654b",
"L  c #6a6354",
"P  c #696657",
"I  c #647b47",
"U  c #677857",
"Y  c #716655",
"T  c #756d52",
"R  c #6a6667",
"E  c #7b7969",
"W  c #6d6f73",
"Q  c #58588f",
"!  c #5c5ea3",
"~  c #665c9e",
"^  c #727196",
"/  c #7977a6",
"(  c #6e73b2",
")  c #5d66af",
"_  c #7478cd",
"`  c #5d843e",
"'  c #5e8447",
"]  c #65884a",
"[  c #6b944b",
"{  c #6d9554",
"}  c #719b4d",
"|  c #739957",
" . c #6e8759",
".. c #748967",
"X. c #778575",
"o. c #7b9b68",
"O. c #70926e",
"+. c #78a658",
"@. c #7ca567",
"#. c #7ea871",
"$. c #7c8d84",
"%. c #7f83b0",
"&. c #7baf88",
"*. c #7d87cb",
"=. c #91341d",
"-. c #873b2b",
";. c #853b34",
":. c #933d2c",
">. c #993b2a",
",. c #983d34",
"<. c #a83a29",
"1. c #aa3c31",
"2. c #b43b2c",
"3. c #bb3b2b",
"4. c #b93826",
"5. c #b73b33",
"6. c #b63d45",
"7. c #884336",
"8. c #984537",
"9. c #98402c",
"0. c #a7412b",
"q. c #a74435",
"w. c #b94437",
"e. c #864a44",
"r. c #87574a",
"t. c #994447",
"y. c #95544c",
"u. c #925855",
"i. c #936b5a",
"p. c #876652",
"a. c #946c67",
"s. c #a94845",
"d. c #b3524c",
"f. c #ba5d7b",
"g. c #b16d59",
"h. c #b0746d",
"j. c #c43a2b",
"k. c #cb3a2b",
"l. c #c93727",
"z. c #c73c33",
"x. c #d3392b",
"c. c #d83629",
"v. c #d43c33",
"b. c #dd3b34",
"n. c #d93837",
"m. c #da2e27",
"M. c #ff1b38",
"N. c #e72d29",
"B. c #ec2c37",
"V. c #e5342b",
"C. c #ec363a",
"Z. c #e73936",
"A. c #f7292b",
"S. c #f92a37",
"D. c #f3312d",
"F. c #f63439",
"G. c #da3d43",
"H. c #c03e40",
"J. c #e93d45",
"K. c #fc2b48",
"L. c #f83b43",
"P. c #fa3b58",
"I. c #f03654",
"U. c #ff3b66",
"Y. c #fb3e71",
"T. c #c84239",
"R. c #d6443c",
"E. c #e4423b",
"W. c #c64b47",
"Q. c #c94a57",
"!. c #d84644",
"~. c #d54954",
"^. c #d75348",
"/. c #cc5754",
"(. c #cc5969",
"). c #d6655b",
"_. c #d56f71",
"`. c #e74546",
"'. c #e95657",
"]. c #f6454a",
"[. c #f94956",
"{. c #ec5055",
"}. c #fb4667",
"|. c #fe4877",
" X c #fb5668",
".X c #fd5776",
"XX c #e75a64",
"oX c #e8645c",
"OX c #f8686b",
"+X c #fa6774",
"@X c #f9737a",
"#X c #e96f6f",
"$X c #847597",
"%X c #8c7dae",
"&X c #b37498",
"*X c #837ec8",
"=X c #fd7985",
"-X c #e97b84",
";X c #c56995",
":X c #82865e",
">X c #879172",
",X c #8aa877",
"<X c #97a57c",
"1X c #89b06e",
"2X c #a2917c",
"3X c #a5b979",
"4X c #f9827c",
"5X c #8e968e",
"6X c #8785bc",
"7X c #8483a9",
"8X c #89a889",
"9X c #93af92",
"0X c #af84aa",
"qX c #acad91",
"wX c #b0b1b0",
"eX c #8fa5a3",
"rX c #8988c8",
"tX c #8886d8",
"yX c #969bdb",
"uX c #9691cc",
"iX c #8d8feb",
"pX c #9ca2ea",
"aX c #a09bd6",
"sX c #a9a7d9",
"dX c #a6abfa",
"fX c #b4b9ff",
"gX c #a8aff3",
"hX c #9dc393",
"jX c #aace93",
"kX c #a8c9af",
"lX c #bbc5c9",
"zX c #c2879b",
"xX c #cfae96",
"cX c #c4bcb8",
"vX c #c9b9a7",
"bX c #ff8a8e",
"nX c #e1aaa4",
"mX c #d1ceb3",
"MX c #ede9ac",
"NX c #e8d4bc",
"BX c #d8cac4",
"VX c #d1d1ce",
"CX c #c1c4e7",
"ZX c #d2e5c6",
"AX c #d9e2e8",
"SX c #ebd9d0",
"DX c #e9ebd9",
"FX c #f1ead5",
"GX c #e7e4e6",
"HX c #f4e7e8",
"JX c #fafae9",
"KX c #fefefe",
"LX c #fdfdfc",
"PX c #fcfaf5",
"IX c #f1f2f2",
"UX c #e6d6f0",
/* pixels */
"# & & = = = = = = = $ # # # # # # & = = > 7 p s p s x 8.w.T.!.].L.J.R.3.w.<.0.9.:.:.:.:.:.8.w.w.8.8 : & : & & . & # $ 8 H a.%X/ V V W 5XE N ",
". # & & = = $ $ & = $ # # $ & # # & & , 5 i 7 7 7 s l 7.1.w.!.`.].F.R.0.2.0.0.9.:.:.:.:.:.,.w.T.8.5 : : : & & O o $ % 7 ;.u.%X) u V B >XE N ",
". . & # # # # # # # # # # $ # & & & & = = = 5 5 5 p s e -.8.T.!.F.E.w.<.0.1.9.:.7.-.-.-.-.8.z.W.r.> : = & o & @ @ o & # 9 H 6X_ u < < 3 b M ",
"o o . . . X . . . . . . . . # # # # # # : 5 = 5 7 7 8 8 w :.q.w.`.`.0.9.0.,.:.-.-.-.;.;.7.q.s.g.>XZ p = & O O @ @ & @ % X R aX*.~ B W 5X$.Z ",
"o o @ . . X . X . . . . . . o . # X # # & : : 5 5 6 6 7 0 -.,.8.q.w.8.:.:.:.:.-.-.-.w 7.e.8.d.5X9XE n 2 & . # # # X # % # K eXeXkXkX9X9X8XC ",
"O & o & & & # . . . . . . X . . # X $ $ : : = $ $ = , = 9 q 7.9.:.8.,.:.:.;.-.-.w w r 7.e.u.a.9X8X$.U n : $ X . # % % %   C ,X,XjXhX&.8XO.n ",
"& & = : : = = # o o % % . # & & @ $ = 5 5 5 : = 5 9 9 9 # 9 0 ;.;.;.7.7.-.-.-.w e e x 7.r.p.o.8X8X#.O.O.n 2 X X X . o X X M >Xo.#.#.#.#.O.n ",
"; , ; > > 7 7 : > : $ $ = & & , : : 6 7 7 7 5 7 : : 7 5 = 5 q ;.e.7.r 7.r w r e d.g.x D Y p.h._.9X8XX.#.O.C 5 X X . $ $ f U  .{ | O.O.O...n ",
"; ; 7 b 7 b 7 b 7 7 7 7 6 > = : : 6 7 s s 7 7 6 : 7 e.t.7.s.q.1.q.q.q.6.t.x r H.`.W.D K i.'.K.K.[.[.XX_._.(.(.Q.t.9 5 5 z  . . .O.#.eX5XU n ",
": , > > b 7 b p p 7 7 6 6 6 : - 5 7 7 s 8 7 6 6 ; x }.z.>.T.1.5.w.<.5.v.J.Z.!.C.c.T.y.p.).L.!.[.K.K.K.U.U.Y.|.|..X(.q i E qX5XeXwXBXVXwXU Z ",
"& , ; > p b p p p b p 5 5 6 > : > 6 p s 5 7 7 ; 6 s.<.<.<.<.>.1.q.w.w.k.N.A.D.V.c.j./.^.].J.2.T.`.L.[.P.U.Y.|.}..X=X(.a.BXAXUXHXLXPXHXVX5XX.",
"o . , > > p p f N 7X/ B y : $ = ; i 7 s 5 = o 5 ;.2.<.<.2.k.5.<.2.z.l.c.b.D.N.c.m.x.R.!.E.z.<.2.!.[.].[.U.Y.=X.X|.U.-Xr.SXLXLXLXLXLXLXIXwXwX",
"> = # = ; p f f R pXfXpXuX^ b y > 5 i 2 3 V n m 8.1.0.<.j.v.v.v.v.v.b.N.D.A.D.l.l.c.R.^.5.4.3.T.!.!.].[.}.}.|.|..X X.X~.nXKXLXLXPXLXIXSXHXJX",
"p 6 = & : 7 f f B yXfXfXfXpX*X~ V < : N $X0Xf.Q.4.<.2.j.v.Z.n.Z.Z.b.E.E.A.A.V.c.l.x.x.`.!.4.4.z.^.W.^.{.XX.X|..X.X X XQ.h.HXKXLXPXPXPXBXJXJX",
"p f p > : 7 p s N rXdXfXfXdXpXtX( ^ H Q.}.~.n.E.z.3.T.v.c.c.c.b.c.c.l.V.F.D.c.V.D.V.R.^.`.v.j.3.w.3.T.^.XX+X X.X@X#X@Xa.n BXLXKXLXPXKXFXJXJX",
"d m f p 6 p p s N %.dXdXdXgXfXdXsX&X`.J.Z.T.R.J.Z.T.T.4.l.b.b.V.l.l.l.x.c.V.Z.B.D.V.l.!.!.^.j.j.4.2.5.5.oXOXOX+X#X@X=X,Xi BXKXKXKXIXLXPXJXJX",
"m m d f f p f f N %.yXiXpXyXrXrX;XJ.`.J.`.5.!.`.n.T.T.2.k.Z.V.V.x.4.z.Z.k.l.l.c.x.l.k.R.`.{.E.j.3.2.0.2.^.#XXX#X+XOX.X..C FXKXKXIXZXDXJXFXFX",
"d d d d d m d d m J ^ 6XrX( ( J G.L.E.].!.w.T.x.T.4.4.j.x.V.D.S.S.F.S.A.c.k.Z.Z.T.j.l.Z.N.c.k.R.5.<.<.<.w.#X@X@X@X X}.<Xo.mXZXkX8XhXjXmXSXBX",
"d d d f d d d d m m B ~ rX%X&X6.k.Z.L.`.5.<.T.n.R.4.j.l.c.D.V.D.A.A.M.S.J.B.F.A.Z.`.n.b.c.j.j.^.z.v.v.3.5.#XbX=X@X}.[.:X] ..I { @.#.1X9XvXcX",
"d d d d d d d d z m m J $XzX+XK.`.!.].!.5.<.T.C.`.^.l.l.Z.D.F.S.B.K.I. X XI.n.4.R.^.!.k.l.<.<.!.b.F.D.V.j./.bX=X@X}.P.k U :X#.#.1X1X1X1XqXcX",
"f f f f d d l d d z m J %.0X@X[.].J.n.z.<.5.v.c.c.E.R.x.C.F.S.M.A.B.P..X{.z.<.=.<.z.!.z.j.2.j.!.V.S.S.D.l.W.bX=X.XU.~.h | ,X,X@.@.#.#.1XhX9X",
"d z l z f z d m F J R ( iXuXh.oX[.L.n.T.1.w.T.k.V.V.E.b.F.].].N.N.m.J.!.n.x.W.~.W.'.!.R.b.L.F.C.c.D.D.D.l.w.bX=X}.U.s.a | +.o.+.@.@.+.1X,X..",
"l m d l z z f B / 6X( rXuXwXvXg.W.].Z.v.3.d.).w.c.V.E.V.N.F.{.{.{.XXG.C.B.[.@X+X{.n.b.R.V.S.L.Z.V.D.S.D.c.5.bX+XU.}.8 a o.o.{ | +.+.+.+.1XU ",
"d d D m D m F / ( ( _ sXMXMXMXqXh._.{.C.b.5.w.^.c.Z.E.N.N.c.v.{. XOX XF.S.[.OX[.b.V.b.v.Z.C.Z.c.V.D.S.D.c.5.=X.XU.Q.- i U | [ { | +.} ] j j ",
"f d m D z J / / ) _ yXCXAXBXmX5XP a.#XOX].Z.T.T.k.`.!.V.V.k.4.z.G. X'.Z.].J.Z.F.D.C.V.b.Z.C.Z.c.V.D.F.D.c.!.+XU.}.G f i j ] ] [ { ] ' ' k A ",
"p p d d F ^ / ! _ tXyXsXaXaX*XW N r.g.@X4X'.l.4.k.x.k.b.b.j.T.z.5.^.!.l.B.S.K.M.S.F.b.Z.Z.B.V.c.c.V.D.D.c.'. XU.G.$ i - g I ` ] [ [ ] ] ] I ",
"= > f d R ^ Q ! _ tXtXrXtXrX%Xa.N z ~.#X4X4Xk.4.T.c.k.l.x.l.j.k.z.z.k.c.S.S.S.S.S.F.n.b.Z.F.Z.x.c.c.R.c.v. XU.Y.q o   g 3X..` [ { [ ] ] I ] ",
"+ o , p B Q ! _ iXtXrX*XtX6X^ H D K d.'.#XR.k.l.c.m.T.j.R.k.k.l.x.v.b.C.L.B.C.F.C.Z.n.Z.C.F.V.l.T.l.l.4.{.U.Y.s., $ h 3XjX| ` } { ] ] ] ] [ ",
"+ X O ; b B ^ iXiX*XtXuXrX$XY D D D r.'.E.V.c.x.V.l.4.T.R.j.j.l.l.c.Z.F.B.].'.E.Z.b.Z.Z.C.F.R.j.4.4.4.4.[.[.Q.7 O 9 >XjX<Xj v [ [ ` { [ [ } ",
"6 > > i a M B %XyX( / %XW Y H D K p.q.c.V.V.c.l.x.4.4.R.E.4.3.k.v.Z.Z.Z.].'.R.b.b.Z.C.J.J.C.v.4.0.0.=.T..X~.r.- h | 1X1Xa 1 I [ ] ] { { [ +.",
"d m g d m D D J ^ J F N D D D L r.d.1.k.V.b.c.R.c.w.<.l.v.R.R.n.Z.F.E.z.2.3.v.C.C.Z.Z.V.C.Z.T.1.>.=.-./.d.u.p.v 3X| g - & 2 ] } [ { [ } +.+.",
"D D D F D K D K D D M f p g M D i.~.x.3.k.c.c.c.x.4.=.<.j.x.Z.J.C.C.n.<.<.2.R.C.F.Z.Z.E.G.T.<.>.-.-.c d.y.i.i.>Xk   ; = > 1 ] } { } } +.+.' ",
"F L L F F L L L K K K D p p 2 b f d.`.k.j.x.x.l.x.w.=.=.3.n.`.n.5.5.<.>.0.<.4.v.Z.E.E.T.5.>.-.-.w e 7.y.y.u.r.h O ; b - > 1 ] | } } +.+.] ] ",
"K L D L L F F L F Y L K M p 2 1 1 y.oX].k.k.k.R.x.R.w.w.!.`.!.1.7.7.c -.-.-.:.1.3.z.2.<.-.-.-.w e e 8.y.y.u.i.I a Z a - - -  .} } +.+.{ ] ] ",
"F L F L L Y Y L Y F Y L L m i 1 e.T.~.OX^.R.R.R.!.`.^.`.].E.T.,.7.-.;.r ;.w w w -.-.>.-.-.w e e e e 7.r.y.u.M k I h 1 > * 1 I } } +.{ ' [ ' ",
"K L L L L F L L L Y L Y F K M i x t.s./.W.!.R.T.!.`.`.`.E.`.R.>.-.;.;.;.-.w w w r w w w e e e e 0 x r.y.y.T S C a 1 - > ; = k | +.| ' ' ] ' ",
"L L L L L L L L L L Y F R qXwXE 1 * - > f s.!.n.!.!.!.!.R.R.R.5.;.c -.-.w -.w w w r e r r e 0 0 t r y.u.p.M a * 2 p 1 * , - a | 1X' A ] ' A ",
"L L L L L L L L Y F F >XVXLXKXSX2Xi 1 : . 8 zX/.n.`.J.!.!.R.R.w.-.-.w -.w w w r r r 0 e 0 0 0 0 t e u.G g ; + & + 2 2 1 @ = i | { k A ' ' A ",
"L L L L L L L Y L L R sXKXKXKXPXFX<Xa 5 b 5XJXFX_.z.T.G.n.R.R.T.,.w w w w r r r r 0 0 0 0 q 0 t 4 q G p + * , , ; + 2 2 + O 1 o.' A A A ] C ",
"L L L L L L L L Y K R wXLXKXJXJXJXSXT p 5XHXPXKXLXnXs.5.T.W.!.5.;.7.r ;.w w r r q q q q 0 0 q 0 0 H : & * = * * + + + 2 2 # a O.C j j S ' a ",
"P P P P P P P Y L R wXAXKXKXPXPXJXNXU E VXLXKXKXKXKXFXg.2.z.T.q.7.;.;.w r e e 0 q 0 0 0 q q e l p.P + + & + & + & + + + 2 1 2 n 2 A j S S 2 ",
"P P P P P P Y P P X.AXKXKXPXDXDXDXmXqXVXIXKXKXKXKXKXKXPXxXq.5.5.,.H x q x q q q e q 0 q q l z f >Xn O & * & + O O @ O O O @ 1 1 2 2 a S S @ ",
"P P P P P P Y R K W VXLXKXPXDXDXFXZXHXLXKXKXKXLXKXLXKXKXKXNXg.1.:.-.q r x H r q q q q 8 5 g g z U 1 ; + ; * + @ O O . O O + + 2 2 1 2 P Z O ",
"P P P P P P Y P U W lXKXKXPXJXZXNXGXPXKXKXKXLXKXLXKXKXKXKXKXJXmXi.c t 0 q q q q l l f K i 1 i T M * ; ; ; > > ; , ; O O X O o @ 2 2 1 2 n @ ",
"L P P P P P R P P W lXKXKXPXJXmXmXUXKXKXLXLXKXLXKXKXKXPXLXKXKXKXKXJXSXvXz s l f g f a K i 1 h K D p 2 > 2 2 2 3 > 2 ; ; @ O O o + 2 2 2 2 1 ",
"Z Z P P P Y Y P U $.VXLXPXDXmXmXcXGXKXKXKXKXLXLXLXKXKXKXPXHXKXKXKXLXJXSXT s g f f p a i a k K g g g p p 2 > 2 > 2 2 2 3 2 2 ; 1 j j 2 j n 1 "
};
