P3
#This is a comment.
70 46
255
51 45 43 51 51 45 51 51 45 58 51 45 
58 51 45 58 51 45 58 51 45 58 51 45 
58 51 45 58 51 45 55 44 42 51 45 43 
51 45 43 51 45 43 51 45 43 51 45 43 
51 45 43 51 51 45 58 51 45 58 51 45 
59 59 51 70 59 52 72 70 55 83 68 46 
72 70 55 83 68 46 118 67 55 152 69 55 
185 68 55 200 66 57 216 70 68 246 69 74 
248 59 67 233 61 69 214 68 60 187 59 43 
185 68 55 168 58 41 167 65 43 152 64 44 
147 61 44 147 61 44 147 61 44 147 61 44 
147 61 44 152 69 55 185 68 55 185 68 55 
152 69 55 88 59 54 59 53 50 51 51 45 
59 53 50 51 51 45 51 51 45 45 43 43 
51 51 45 51 45 43 55 44 42 88 59 54 
115 84 77 148 108 103 140 125 174 121 119 166 
78 77 105 78 77 105 109 111 115 142 150 142 
123 121 105 85 81 85 45 43 43 51 45 43 
51 51 45 51 51 45 58 51 45 58 51 45 
55 44 42 55 44 42 51 51 45 58 51 45 
55 44 42 51 45 43 51 45 43 55 44 42 
51 51 45 51 45 43 51 45 43 51 51 45 
51 51 45 54 55 51 68 57 45 69 71 44 
70 59 52 70 59 52 70 59 52 83 68 46 
101 70 56 136 67 54 170 60 49 185 68 55 
216 70 68 231 69 70 246 69 74 246 52 57 
214 68 60 167 65 43 180 59 44 167 65 43 
167 65 43 152 64 44 147 61 44 147 61 44 
147 61 44 147 61 44 147 61 44 152 61 52 
185 68 55 200 66 57 152 69 55 68 57 45 
59 53 50 59 53 50 59 53 50 51 51 45 
51 51 45 45 50 44 45 46 49 55 44 42 
49 42 48 70 59 52 133 59 52 146 88 85 
140 125 174 93 102 175 73 62 117 78 77 105 
92 88 105 135 145 114 123 121 105 85 81 85 
45 43 43 45 43 43 51 51 45 51 45 43 
51 45 43 51 45 43 51 45 43 51 45 43 
51 45 43 51 45 43 51 45 43 51 45 43 
51 45 43 55 44 42 51 45 43 51 51 45 
51 51 45 51 51 45 51 51 45 58 51 45 
58 51 45 58 51 45 68 57 45 68 57 45 
68 57 45 72 70 55 83 68 46 117 55 44 
135 59 43 152 69 55 200 66 57 216 70 68 
246 52 57 228 66 59 185 68 55 168 58 41 
167 65 43 170 60 49 152 64 44 147 61 44 
136 67 54 135 59 43 135 59 43 135 59 43 
135 59 43 152 69 55 199 60 51 198 75 71 
135 87 74 59 59 51 59 53 50 58 51 45 
51 51 45 45 46 49 51 51 45 46 52 48 
46 52 48 45 46 49 51 51 45 51 45 43 
79 48 42 115 84 77 135 133 188 116 120 205 
73 62 117 56 53 76 56 53 76 60 70 76 
77 75 72 90 87 70 45 46 49 45 46 49 
45 43 43 45 43 43 45 43 43 42 41 39 
45 43 43 45 43 43 45 43 43 45 43 43 
45 43 43 45 43 43 45 43 43 45 43 43 
51 45 43 51 45 43 51 45 43 51 45 43 
51 45 43 51 45 43 59 53 50 68 57 45 
58 51 45 68 57 45 70 59 52 70 59 52 
88 59 54 88 59 54 124 58 45 147 61 44 
167 68 53 185 68 55 231 69 70 231 69 70 
167 65 43 152 64 44 167 65 43 152 61 52 
147 61 44 135 59 43 135 59 43 135 59 43 
133 59 52 133 59 52 136 67 54 167 68 53 
169 72 69 177 109 89 135 145 114 90 104 83 
72 70 55 58 51 45 51 51 45 45 50 44 
45 50 44 46 52 48 46 52 48 51 51 45 
46 52 48 49 42 48 42 41 39 106 102 103 
160 155 214 125 135 203 102 92 158 92 88 105 
109 111 115 142 150 142 124 141 132 90 104 83 
45 46 49 45 46 49 46 52 48 45 43 43 
45 43 43 42 41 39 45 43 43 42 41 39 
45 43 43 45 43 43 45 43 43 45 43 43 
45 43 43 45 43 43 45 46 49 45 43 43 
51 45 43 42 41 39 51 45 43 51 45 43 
51 51 45 59 53 50 59 53 50 68 57 45 
68 57 45 67 59 50 67 59 50 70 59 52 
105 54 44 135 59 43 152 61 52 152 69 55 
167 68 53 185 68 55 152 69 55 147 61 44 
147 61 44 147 61 44 147 61 44 135 59 43 
135 59 43 135 59 43 124 58 45 136 67 54 
134 74 68 152 69 55 179 82 76 142 150 142 
147 175 146 123 121 105 75 88 68 57 68 53 
51 51 45 45 43 43 51 45 43 51 45 43 
51 45 43 42 41 39 51 45 43 49 42 48 
51 45 43 104 101 75 143 165 163 143 165 163 
168 201 175 168 201 175 147 175 146 147 175 146 
137 168 137 89 104 71 45 50 44 51 51 45 
45 46 49 51 51 45 51 51 45 51 51 45 
51 45 43 45 43 43 45 43 43 45 43 43 
45 43 43 45 43 43 45 43 43 42 41 39 
45 43 43 45 43 43 51 45 43 42 41 39 
55 44 42 55 44 42 59 53 50 59 53 50 
58 51 45 55 44 42 55 44 42 58 51 45 
54 55 51 58 51 45 79 48 42 106 58 51 
136 67 54 152 64 44 147 61 44 152 69 55 
152 61 52 147 61 44 147 61 44 133 59 52 
135 59 43 135 59 43 124 58 45 124 58 45 
121 59 50 136 67 54 134 74 68 146 88 85 
148 108 103 147 175 146 137 168 137 124 141 132 
103 120 87 75 88 68 59 53 50 55 44 42 
42 41 39 45 43 43 51 45 43 49 42 48 
49 42 48 49 42 48 43 47 30 89 104 71 
138 168 119 138 168 119 170 206 147 157 195 147 
123 175 136 137 168 137 119 152 119 75 88 68 
51 51 45 51 51 45 58 51 45 59 53 50 
59 53 50 58 51 45 58 51 45 51 45 43 
45 46 49 45 46 49 49 42 48 49 42 48 
45 43 43 51 45 43 51 51 45 51 51 45 
46 52 48 55 44 42 58 51 45 68 57 45 
68 57 45 68 57 45 59 53 50 58 51 45 
68 57 45 79 48 42 79 48 42 79 48 42 
51 45 43 79 48 42 105 54 44 133 59 52 
133 59 52 133 59 52 136 67 54 136 67 54 
135 59 43 135 59 43 135 59 43 124 58 45 
117 55 44 117 55 44 118 67 55 136 67 54 
135 87 74 135 102 82 119 152 119 137 168 137 
137 168 137 126 168 113 107 142 104 107 142 104 
90 104 83 51 60 44 42 41 39 42 41 39 
42 41 39 45 43 43 45 46 49 42 41 39 
42 41 39 90 87 70 135 145 114 123 155 104 
126 168 113 126 168 113 126 168 113 126 168 113 
116 137 103 75 88 68 54 59 51 54 55 51 
54 59 51 59 59 51 59 59 51 70 59 52 
70 59 52 59 53 50 59 59 51 59 53 50 
55 44 42 55 44 42 58 51 45 51 51 45 
51 51 45 54 55 51 59 53 50 59 53 50 
67 59 50 70 59 52 70 59 52 70 59 52 
68 57 45 70 59 52 59 53 50 59 53 50 
70 59 52 68 57 45 58 51 45 68 57 45 
106 58 51 133 59 52 134 74 68 136 67 54 
121 59 50 136 67 54 121 59 50 124 58 45 
121 59 50 117 55 44 179 82 76 177 109 89 
118 67 55 115 84 77 113 102 85 135 102 82 
177 109 89 213 111 113 147 175 146 137 168 137 
138 168 119 119 152 119 107 142 104 89 104 71 
68 57 45 42 41 39 42 41 39 45 43 43 
55 44 42 55 44 42 87 74 56 103 120 87 
110 135 89 109 149 84 115 153 87 107 142 104 
119 152 119 119 152 119 107 142 104 75 88 68 
54 59 51 54 59 51 70 59 52 77 75 72 
70 59 52 77 75 72 70 59 52 77 75 72 
70 59 52 70 59 52 70 59 52 70 59 52 
67 59 50 59 59 51 58 51 45 59 53 50 
59 53 50 67 59 50 70 59 52 83 68 46 
83 68 46 70 59 52 70 59 52 67 59 50 
59 53 50 70 59 52 134 74 68 153 68 71 
136 67 54 169 72 69 167 68 53 170 60 49 
167 68 53 167 68 53 167 68 53 182 61 69 
153 68 71 118 67 55 121 59 50 192 62 64 
231 69 70 198 75 71 101 91 72 104 101 75 
135 102 82 233 86 87 252 43 72 252 43 72 
249 73 86 249 73 86 231 90 100 213 111 113 
213 111 113 204 89 105 204 89 105 201 74 87 
153 68 71 79 48 42 68 57 45 68 57 45 
99 85 59 110 135 89 110 135 89 110 135 89 
107 142 104 119 152 119 137 168 137 124 141 132 
103 120 87 89 104 71 59 53 50 54 55 51 
59 59 51 59 59 51 77 75 72 70 59 52 
77 75 72 72 70 55 72 70 55 70 59 52 
70 59 52 67 59 50 67 59 50 67 59 50 
59 53 50 58 57 41 68 57 45 70 59 52 
70 59 52 83 68 46 88 59 54 70 59 52 
67 59 50 67 59 50 54 59 51 118 67 55 
251 70 103 199 60 51 153 59 42 200 66 57 
170 60 49 183 59 51 185 68 55 168 58 41 
183 59 51 212 60 51 233 61 69 231 57 54 
214 68 60 233 61 69 218 46 39 200 66 57 
135 102 82 135 102 82 232 100 92 248 59 67 
216 70 68 249 73 86 252 43 72 252 43 72 
252 43 72 255 59 102 255 59 102 251 62 113 
254 72 119 254 72 119 253 87 118 204 89 105 
106 58 51 69 71 44 148 108 103 143 165 163 
142 150 142 143 165 163 176 177 176 209 209 206 
209 209 206 176 177 176 109 111 115 89 104 71 
51 51 45 54 55 51 54 59 51 59 59 51 
72 70 55 77 75 72 72 70 55 72 70 55 
72 70 55 77 75 72 72 70 55 68 57 45 
68 57 45 67 59 50 59 59 51 59 53 50 
59 59 51 67 59 50 72 70 55 83 68 46 
68 57 45 70 59 52 70 59 52 54 59 51 
67 59 50 169 72 69 168 58 41 168 58 41 
168 58 41 168 58 41 153 59 42 170 60 49 
167 68 53 185 68 55 185 68 55 203 58 43 
231 45 41 247 41 43 243 49 45 229 52 43 
216 54 41 196 58 43 198 75 71 233 86 87 
246 69 74 231 69 70 170 60 49 200 66 57 
231 69 70 248 59 67 249 73 86 250 59 88 
255 59 102 251 62 113 254 72 119 251 70 103 
253 87 118 253 121 133 204 89 105 148 108 103 
209 206 179 231 228 230 230 214 240 244 231 232 
254 254 253 252 250 245 244 231 232 209 209 206 
142 150 142 116 137 103 45 46 49 45 43 43 
54 55 51 59 59 51 59 59 51 72 70 55 
72 70 55 87 74 56 85 81 85 132 131 169 
121 119 166 92 88 105 67 63 78 59 53 50 
55 44 42 58 51 45 54 59 51 69 71 44 
70 59 52 83 68 46 68 57 45 58 51 45 
45 46 49 68 57 45 133 59 52 170 60 49 
168 58 41 168 58 41 180 59 44 203 58 43 
183 59 51 168 58 41 180 59 44 199 60 51 
201 55 39 216 54 41 221 59 52 243 49 45 
231 45 41 216 54 41 216 54 41 211 57 43 
214 68 60 214 68 60 214 68 60 199 60 51 
168 58 41 180 59 44 216 70 68 249 73 86 
248 59 67 249 73 86 255 59 102 251 62 113 
253 121 133 253 87 118 254 72 119 255 59 102 
233 123 132 135 102 82 235 217 208 254 254 253 
254 254 253 254 254 253 254 254 253 254 254 253 
254 254 253 241 242 242 176 177 176 176 177 176 
59 59 51 58 51 45 51 45 43 58 51 45 
54 59 51 72 70 55 87 74 56 87 74 56 
106 102 103 156 162 234 180 185 255 156 162 234 
150 145 204 114 113 150 77 75 72 67 63 78 
59 59 51 68 57 45 69 71 44 57 68 53 
60 70 76 78 77 105 75 88 68 89 77 69 
152 69 55 168 58 41 167 65 43 180 59 44 
185 56 38 212 60 51 212 60 51 212 60 51 
212 60 51 212 60 51 221 59 52 231 45 41 
243 49 45 247 41 43 243 49 45 201 55 39 
201 55 39 216 54 41 214 68 60 215 83 72 
199 60 51 185 56 38 187 59 43 200 66 57 
216 70 68 216 70 68 246 69 74 251 86 104 
249 73 86 254 72 119 254 72 119 254 72 119 
253 87 118 251 86 104 253 87 118 213 73 84 
225 170 164 254 254 253 254 254 253 254 254 253 
252 250 245 252 250 245 252 250 245 235 217 208 
244 231 232 244 231 232 72 70 55 67 59 50 
58 51 45 51 51 45 59 53 50 70 59 52 
87 74 56 87 74 56 92 88 105 150 155 219 
180 185 255 180 185 255 180 185 255 156 162 234 
131 126 200 102 92 158 78 77 105 56 53 76 
59 53 50 85 81 85 132 117 151 175 132 170 
186 93 123 201 74 87 185 56 38 168 58 41 
180 59 44 196 58 43 212 60 51 231 57 54 
217 56 55 231 57 54 231 57 54 229 52 43 
228 66 59 228 66 59 247 41 43 247 41 43 
229 52 43 216 54 41 201 55 39 211 57 43 
211 57 43 231 69 70 216 70 68 185 56 38 
185 56 38 199 60 51 215 83 72 198 75 71 
215 83 72 236 80 85 251 86 104 251 86 104 
254 72 119 253 87 118 251 86 104 251 86 104 
251 86 104 201 74 87 176 116 109 244 231 232 
254 254 253 254 254 253 252 250 245 252 250 245 
252 250 245 216 202 196 250 250 233 250 250 233 
72 70 55 87 74 56 72 70 55 59 59 51 
59 53 50 70 59 52 72 70 55 83 68 46 
85 81 85 137 136 200 166 171 250 180 185 255 
180 185 255 166 171 250 156 162 234 136 134 216 
110 115 178 114 113 150 115 84 77 201 74 87 
251 70 103 213 73 84 217 56 55 228 66 59 
199 60 51 187 59 43 200 66 57 212 60 51 
221 59 52 218 46 39 221 59 52 221 59 52 
216 54 41 201 55 39 201 55 39 228 66 59 
243 49 45 246 52 57 218 46 39 221 59 52 
243 49 45 229 52 43 214 68 60 215 83 72 
216 70 68 212 60 51 196 58 43 187 59 43 
185 68 55 187 59 43 200 66 57 198 75 71 
231 90 100 250 103 116 251 86 104 253 87 118 
249 115 122 250 103 116 249 115 122 148 108 103 
75 88 68 216 202 196 254 254 253 254 254 253 
254 254 253 252 250 245 254 254 253 241 234 213 
250 250 233 250 250 233 92 77 60 89 77 69 
87 74 56 72 70 55 67 59 50 72 70 55 
72 70 55 83 68 46 85 81 85 127 131 176 
166 171 250 166 171 250 166 171 250 168 175 243 
180 185 255 166 171 250 169 167 217 179 116 152 
231 69 70 233 61 69 231 57 54 200 66 57 
214 68 60 233 61 69 231 57 54 200 66 57 
200 66 57 185 56 38 201 55 39 221 59 52 
216 54 41 216 54 41 216 54 41 201 55 39 
201 55 39 216 54 41 216 54 41 229 52 43 
231 57 54 236 44 55 247 41 43 229 52 43 
201 55 39 228 66 59 213 73 84 231 69 70 
196 58 43 196 58 43 185 56 38 187 59 43 
180 59 44 185 68 55 232 100 92 248 104 107 
250 103 116 233 111 111 233 111 111 249 115 122 
253 121 133 138 168 119 69 71 44 216 202 196 
254 254 253 254 254 253 254 254 253 241 242 242 
254 254 253 252 250 245 250 250 233 250 250 233 
89 77 69 89 77 69 92 77 60 87 74 56 
87 74 56 72 70 55 87 74 56 87 74 56 
85 81 85 127 131 176 150 155 219 141 143 235 
156 162 234 150 155 219 137 136 200 137 136 200 
197 105 149 233 61 69 231 69 70 233 61 69 
231 69 70 183 59 51 216 70 68 231 69 70 
217 56 55 200 66 57 200 66 57 185 56 38 
203 58 43 231 57 54 229 52 43 229 52 43 
211 57 43 185 56 38 199 60 51 231 57 54 
201 55 39 201 55 39 201 55 39 216 54 41 
203 58 43 201 55 39 201 55 39 214 68 60 
228 66 59 233 86 87 214 68 60 203 58 43 
187 59 43 170 60 49 170 60 49 180 59 44 
215 83 72 233 111 111 231 90 100 250 103 116 
250 103 116 248 104 107 253 87 118 116 137 103 
89 104 71 241 234 213 254 254 253 254 254 253 
241 242 242 210 229 198 233 235 217 250 250 233 
241 234 213 241 234 213 92 77 60 92 77 60 
92 77 60 92 77 60 92 77 60 89 77 69 
92 77 60 92 77 60 89 77 69 107 90 107 
114 113 150 135 133 188 137 136 200 110 115 178 
110 115 178 107 90 107 218 61 67 248 59 67 
228 66 59 246 69 74 216 70 68 185 68 55 
200 66 57 211 57 43 200 66 57 185 56 38 
185 56 38 196 58 43 211 57 43 229 52 43 
246 52 57 249 42 55 249 42 55 243 49 45 
252 43 72 247 41 43 216 54 41 201 55 39 
231 57 54 231 57 54 200 66 57 196 58 43 
201 55 39 231 57 54 236 44 55 216 54 41 
211 57 43 214 68 60 183 59 51 168 58 41 
168 58 41 168 58 41 185 68 55 233 111 111 
249 115 122 249 115 122 249 115 122 251 86 104 
251 70 103 151 165 124 123 155 104 209 206 179 
210 229 198 168 201 175 137 168 137 157 195 147 
170 206 147 209 206 179 235 217 208 216 202 196 
92 77 60 92 77 60 92 77 60 87 74 56 
92 77 60 92 77 60 92 77 60 92 77 60 
89 77 69 89 77 69 92 88 105 102 92 158 
137 136 200 140 125 174 179 116 152 182 61 69 
203 58 43 231 57 54 248 59 67 231 69 70 
183 59 51 168 58 41 200 66 57 217 56 55 
214 68 60 185 56 38 196 58 43 201 55 39 
216 54 41 243 49 45 229 52 43 231 45 41 
247 41 43 247 41 43 255 27 56 249 42 55 
233 61 69 236 54 58 249 42 55 243 49 45 
231 57 54 231 69 70 217 56 55 221 59 52 
216 54 41 196 58 43 196 58 43 215 83 72 
199 60 51 212 60 51 212 60 51 187 59 43 
180 59 44 233 111 111 255 138 142 253 121 133 
249 115 122 251 70 103 249 73 86 130 134 94 
101 136 74 116 137 103 100 123 71 109 149 84 
124 165 103 126 168 113 137 176 110 147 175 146 
201 185 167 196 188 184 92 77 60 92 77 60 
92 77 60 92 77 60 92 77 60 92 77 60 
92 77 60 92 77 60 99 85 59 89 77 69 
89 77 69 107 90 107 132 117 151 194 135 155 
250 103 116 252 43 72 231 69 70 216 70 68 
246 69 74 216 70 68 183 59 51 168 58 41 
200 66 57 236 54 58 231 69 70 214 68 60 
196 58 43 211 57 43 229 52 43 243 49 45 
246 52 57 249 42 55 249 42 55 252 43 72 
240 54 84 251 86 104 251 86 104 240 54 84 
217 56 55 185 56 38 214 68 60 215 83 72 
216 70 68 203 58 43 201 55 39 168 58 41 
168 58 41 216 70 68 221 59 52 243 49 45 
247 41 43 231 57 54 201 55 39 204 87 84 
255 138 142 253 121 133 249 115 122 251 70 103 
250 59 88 88 84 59 110 135 89 130 134 94 
123 155 104 126 168 113 137 176 110 137 176 110 
137 176 110 137 176 110 172 173 145 196 188 184 
87 74 56 87 74 56 87 74 56 87 74 56 
92 77 60 92 77 60 101 70 56 92 77 60 
92 77 60 99 85 59 89 77 69 107 90 107 
127 131 176 175 132 170 249 115 122 249 73 86 
246 69 74 233 61 69 217 56 55 199 60 51 
168 58 41 183 59 51 212 60 51 216 54 41 
228 66 59 228 66 59 214 68 60 211 57 43 
236 54 58 246 52 57 249 42 55 255 27 56 
247 41 43 236 44 55 250 59 88 253 87 118 
236 80 85 203 58 43 168 58 41 145 52 29 
168 58 41 199 60 51 216 70 68 199 60 51 
196 58 43 185 56 38 196 58 43 216 70 68 
229 52 43 249 42 55 243 49 45 243 49 45 
201 55 39 198 75 71 255 138 142 253 121 133 
253 87 118 251 70 103 213 73 84 67 87 45 
115 153 87 138 168 119 137 176 110 124 165 103 
124 165 103 126 168 113 126 168 113 137 176 110 
157 195 147 147 175 146 92 77 60 99 85 59 
101 70 56 99 85 59 87 74 56 99 85 59 
92 77 60 89 77 69 104 94 85 107 90 107 
106 102 103 110 115 178 141 143 235 150 145 204 
176 116 109 232 100 92 249 73 86 248 59 67 
221 59 52 200 66 57 170 60 49 185 68 55 
200 66 57 201 55 39 216 54 41 229 52 43 
228 66 59 216 54 41 246 52 57 246 69 74 
246 69 74 231 45 41 218 46 39 229 52 43 
218 61 67 218 61 67 231 57 54 203 58 43 
198 75 71 213 73 84 198 75 71 233 86 87 
216 70 68 214 68 60 221 59 52 246 52 57 
248 59 67 236 54 58 216 54 41 243 49 45 
249 42 55 243 49 45 211 57 43 185 68 55 
255 138 142 253 121 133 251 70 103 255 59 102 
153 68 71 74 101 57 109 149 84 124 165 103 
123 155 104 124 165 103 124 165 103 124 165 103 
120 166 88 137 176 110 138 168 119 116 137 103 
101 70 56 89 77 69 92 77 60 101 70 56 
99 85 59 99 85 59 87 74 56 92 88 105 
121 119 166 135 133 188 110 115 178 137 136 200 
150 145 204 176 177 176 201 185 167 177 109 89 
198 75 71 246 69 74 231 57 54 212 60 51 
187 59 43 179 82 76 214 101 91 200 66 57 
216 54 41 229 52 43 228 66 59 229 52 43 
243 49 45 246 52 57 236 80 85 236 80 85 
236 80 85 233 86 87 218 61 67 233 61 69 
236 44 55 249 73 86 249 115 122 250 103 116 
236 80 85 217 56 55 214 68 60 214 68 60 
229 52 43 249 42 55 248 59 67 231 57 54 
229 52 43 243 49 45 246 52 57 243 49 45 
211 57 43 183 59 51 255 138 142 250 103 116 
255 59 102 251 70 103 88 59 54 72 87 56 
123 155 104 115 153 87 109 149 84 115 153 87 
120 166 88 120 166 88 120 166 88 120 166 88 
137 176 110 103 120 87 92 77 60 92 77 60 
101 91 72 89 77 69 101 91 72 89 77 69 
104 94 85 121 119 166 110 115 178 110 115 178 
116 120 205 169 167 217 237 233 172 237 233 172 
237 233 172 172 173 145 176 116 109 213 111 113 
233 86 87 236 54 58 217 56 55 187 59 43 
185 68 55 215 83 72 201 55 39 231 57 54 
228 66 59 229 52 43 231 45 41 218 46 39 
212 60 51 236 80 85 251 86 104 250 103 116 
248 104 107 249 42 55 249 42 55 249 73 86 
248 104 107 249 73 86 221 59 52 231 57 54 
229 52 43 212 60 51 231 57 54 236 54 58 
236 54 58 216 54 41 229 52 43 243 49 45 
243 49 45 247 41 43 221 59 52 183 59 51 
253 121 133 253 87 118 255 59 102 201 74 87 
58 57 41 69 71 44 103 120 87 115 153 87 
107 148 75 109 149 84 115 153 87 120 166 88 
113 155 77 101 136 74 74 101 57 74 101 57 
87 74 56 92 77 60 89 77 69 101 91 72 
99 85 59 107 90 107 121 119 166 121 119 166 
93 102 175 116 120 205 150 155 219 193 196 231 
217 226 232 216 202 196 209 206 179 142 150 142 
105 102 87 148 108 103 233 111 111 248 104 107 
246 69 74 231 57 54 200 66 57 200 66 57 
211 57 43 231 69 70 216 70 68 229 52 43 
229 52 43 203 58 43 187 59 43 199 60 51 
218 61 67 231 90 100 233 86 87 231 57 54 
246 69 74 233 61 69 236 54 58 246 52 57 
243 49 45 243 49 45 221 59 52 231 57 54 
231 57 54 236 54 58 231 57 54 216 54 41 
229 52 43 243 49 45 246 52 57 243 49 45 
216 54 41 216 70 68 250 103 116 255 59 102 
255 59 102 119 88 74 88 84 59 69 71 44 
72 87 56 101 136 74 101 136 74 107 148 75 
109 149 84 101 136 74 94 132 71 94 132 71 
85 106 60 89 120 69 72 70 55 72 70 55 
92 77 60 92 77 60 104 94 85 114 113 150 
121 119 166 92 94 163 116 120 205 136 134 216 
150 155 219 169 167 217 160 155 214 160 155 214 
131 126 200 109 111 115 85 81 85 135 87 74 
179 82 76 249 115 122 249 130 124 233 86 87 
201 55 39 185 56 38 203 58 43 212 60 51 
203 58 43 221 59 52 221 59 52 196 58 43 
200 66 57 199 60 51 199 60 51 215 83 72 
216 70 68 201 55 39 236 44 55 249 42 55 
252 43 72 255 27 56 249 42 55 243 49 45 
221 59 52 221 59 52 231 57 54 243 49 45 
231 57 54 216 54 41 216 54 41 229 52 43 
243 49 45 243 49 45 216 54 41 233 86 87 
251 70 103 255 59 102 213 73 84 55 44 42 
69 71 44 58 57 41 88 84 59 100 123 71 
94 132 71 101 136 74 107 148 75 101 136 74 
101 136 74 101 136 74 101 136 74 100 123 71 
58 51 45 59 59 51 87 74 56 92 77 60 
106 102 103 114 113 150 88 88 143 92 94 163 
116 120 205 136 134 216 136 134 216 137 136 200 
136 134 216 137 136 200 140 125 174 148 108 103 
90 87 70 119 88 74 204 87 84 233 111 111 
249 130 124 249 130 124 196 58 43 185 56 38 
201 55 39 211 57 43 203 58 43 201 55 39 
211 57 43 201 55 39 196 58 43 196 58 43 
199 60 51 212 60 51 199 60 51 218 46 39 
246 52 57 249 42 55 249 42 55 249 42 55 
252 43 72 246 52 57 217 56 55 231 57 54 
236 54 58 236 54 58 229 52 43 211 57 43 
216 54 41 216 54 41 211 57 43 211 57 43 
214 68 60 251 86 104 255 59 102 251 70 103 
106 58 51 42 41 39 43 47 30 88 84 59 
165 185 121 116 137 103 93 132 62 107 148 75 
113 155 77 107 148 75 101 136 74 101 136 74 
100 123 71 101 136 74 45 54 42 45 46 49 
54 55 51 72 70 55 92 88 105 88 88 143 
92 94 163 116 120 205 141 143 235 136 134 216 
137 136 200 131 126 200 136 134 216 135 133 188 
114 113 150 115 84 77 90 87 70 104 101 75 
179 82 76 231 90 100 233 111 111 214 68 60 
201 55 39 200 66 57 211 57 43 216 54 41 
203 58 43 196 58 43 214 68 60 203 58 43 
203 58 43 201 55 39 211 57 43 211 57 43 
221 59 52 236 54 58 248 59 67 236 44 55 
236 54 58 246 52 57 236 54 58 231 57 54 
217 56 55 231 57 54 236 54 58 246 52 57 
231 57 54 216 54 41 200 66 57 201 55 39 
185 56 38 200 66 57 231 69 70 255 59 102 
251 62 113 182 61 69 54 55 51 55 44 42 
67 87 45 165 185 121 170 206 147 115 153 87 
93 132 62 113 155 77 109 149 84 101 136 74 
101 136 74 101 136 74 101 136 74 107 148 75 
45 54 42 42 41 39 45 50 44 54 59 51 
77 75 72 92 88 105 114 113 150 141 143 235 
141 143 235 131 126 200 136 134 216 150 145 204 
137 136 200 132 117 151 113 102 85 101 91 72 
104 101 75 101 91 72 135 87 74 233 86 87 
228 66 59 229 52 43 216 54 41 216 54 41 
229 52 43 201 55 39 187 59 43 196 58 43 
214 68 60 203 58 43 196 58 43 203 58 43 
211 57 43 216 54 41 231 57 54 246 52 57 
236 44 55 246 69 74 236 80 85 228 66 59 
231 57 54 217 56 55 231 57 54 231 57 54 
236 54 58 236 54 58 221 59 52 185 56 38 
185 56 38 196 58 43 185 56 38 185 56 38 
249 73 86 251 70 103 201 74 87 70 59 52 
45 50 44 79 48 42 135 145 114 170 206 147 
151 165 124 74 101 57 96 124 60 107 148 75 
101 136 74 101 136 74 107 148 75 109 149 84 
101 136 74 113 155 77 67 59 50 59 59 51 
59 59 51 69 71 44 72 87 56 90 87 70 
92 88 105 140 125 174 150 155 219 110 115 178 
121 119 166 140 125 174 109 111 115 113 102 85 
101 91 72 104 94 85 101 91 72 135 102 82 
167 68 53 216 54 41 231 45 41 229 52 43 
216 54 41 201 55 39 211 57 43 187 59 43 
185 56 38 214 68 60 228 66 59 180 59 44 
187 59 43 196 58 43 212 60 51 231 57 54 
231 57 54 231 57 54 246 69 74 233 86 87 
214 68 60 221 59 52 221 59 52 231 57 54 
236 54 58 233 61 69 236 54 58 236 54 58 
214 68 60 187 59 43 168 58 41 167 65 43 
145 52 29 198 75 71 251 86 104 213 73 84 
135 87 74 58 57 41 67 87 45 115 153 87 
137 176 110 137 176 110 72 87 56 56 66 43 
101 136 74 107 148 75 101 136 74 101 136 74 
109 149 84 107 148 75 113 155 77 120 166 88 
92 77 60 89 77 69 88 84 59 92 77 60 
89 77 69 101 91 72 101 91 72 107 90 107 
114 113 150 107 90 107 104 94 85 85 81 85 
101 91 72 101 91 72 119 88 74 104 101 75 
135 87 74 179 82 76 170 60 49 211 57 43 
221 59 52 216 54 41 216 54 41 211 57 43 
211 57 43 187 59 43 168 58 41 196 58 43 
221 59 52 214 68 60 214 68 60 217 56 55 
231 57 54 236 54 58 231 57 54 200 66 57 
185 56 38 183 59 51 212 60 51 236 54 58 
236 54 58 231 57 54 231 57 54 231 57 54 
236 54 58 231 57 54 200 66 57 168 58 41 
153 59 42 145 52 29 135 59 43 204 87 84 
179 82 76 146 88 85 135 102 82 96 124 60 
165 185 121 115 153 87 88 84 59 58 57 41 
58 51 45 57 68 53 100 123 71 113 155 77 
107 148 75 109 149 84 107 148 75 113 155 77 
120 166 88 120 166 88 101 91 72 101 91 72 
101 91 72 104 94 85 101 91 72 104 101 75 
101 91 72 104 101 75 101 91 72 101 91 72 
90 87 70 87 74 56 72 70 55 88 84 59 
90 87 70 104 94 85 147 107 90 213 73 84 
211 57 43 180 59 44 211 57 43 216 54 41 
211 57 43 216 54 41 211 57 43 187 59 43 
145 52 29 168 58 41 196 58 43 203 58 43 
236 54 58 233 61 69 236 54 58 236 54 58 
217 56 55 168 58 41 168 58 41 185 56 38 
214 68 60 236 54 58 246 52 57 231 57 54 
231 57 54 231 57 54 218 61 67 200 66 57 
168 58 41 153 59 42 147 61 44 124 58 45 
124 58 45 179 82 76 149 84 76 147 107 90 
147 107 90 138 168 119 74 101 57 43 47 30 
54 59 51 58 51 45 54 59 51 56 66 43 
101 136 74 113 155 77 113 155 77 113 155 77 
113 155 77 120 166 88 120 166 88 94 132 71 
104 94 85 106 99 84 106 99 84 104 94 85 
101 91 72 106 99 84 106 99 84 106 99 84 
104 101 75 104 101 75 104 101 75 101 91 72 
72 70 55 72 70 55 57 68 53 72 70 55 
87 74 56 179 82 76 246 69 74 196 58 43 
201 55 39 211 57 43 211 57 43 211 57 43 
211 57 43 185 68 55 145 52 29 145 52 29 
187 59 43 217 56 55 231 69 70 217 56 55 
183 59 51 183 59 51 168 58 41 153 59 42 
167 65 43 168 58 41 185 56 38 212 60 51 
231 57 54 228 66 59 228 66 59 200 66 57 
183 59 51 153 59 42 135 59 43 135 59 43 
124 58 45 117 55 44 136 67 54 149 84 76 
149 84 76 149 84 76 135 87 74 69 71 44 
45 54 42 54 59 51 77 75 72 58 57 41 
59 59 51 56 66 43 101 136 74 115 153 87 
113 155 77 113 155 77 120 166 88 120 166 88 
107 148 75 94 132 71 104 94 85 104 101 75 
104 94 85 106 99 84 106 99 84 104 94 85 
106 102 103 106 99 84 104 94 85 113 102 85 
106 99 84 104 101 75 90 87 70 72 70 55 
57 68 53 57 68 53 56 66 43 149 84 76 
233 86 87 236 80 85 203 58 43 203 58 43 
203 58 43 214 68 60 211 57 43 214 68 60 
185 68 55 185 68 55 216 70 68 231 69 70 
216 70 68 170 60 49 136 67 54 136 67 54 
121 65 45 135 59 43 135 59 43 135 59 43 
147 61 44 170 60 49 187 59 43 200 66 57 
180 59 44 168 58 41 135 59 43 135 59 43 
135 59 43 124 58 45 117 55 44 117 55 44 
136 67 54 152 69 55 149 84 76 146 88 85 
148 108 103 100 123 71 72 87 56 90 104 83 
72 87 56 58 57 41 58 57 41 56 66 43 
110 135 89 113 155 77 113 155 77 113 155 77 
124 165 103 109 149 84 101 136 74 101 136 74 
106 99 84 104 94 85 104 94 85 106 99 84 
106 99 84 113 102 85 104 94 85 113 102 85 
104 101 75 113 102 85 104 94 85 113 102 85 
106 99 84 89 77 69 69 71 44 56 66 43 
136 67 54 198 75 71 215 83 72 248 104 107 
215 83 72 214 68 60 214 68 60 216 70 68 
216 70 68 231 69 70 215 83 72 231 69 70 
246 69 74 228 66 59 200 66 57 152 61 52 
136 67 54 135 59 43 133 59 52 121 59 50 
133 59 52 124 58 45 124 58 45 124 58 45 
135 59 43 135 59 43 153 59 42 135 59 43 
135 59 43 124 58 45 117 55 44 117 55 44 
117 55 44 117 55 44 136 67 54 135 102 82 
149 84 76 146 88 85 88 84 59 85 106 60 
89 120 69 67 87 45 56 66 43 59 59 51 
51 60 44 59 59 51 96 124 60 113 155 77 
120 166 88 120 166 88 109 149 84 94 132 71 
101 136 74 94 132 71 104 94 85 104 101 75 
106 99 84 106 99 84 104 94 85 106 99 84 
113 102 85 104 94 85 113 102 85 104 94 85 
113 102 85 113 102 85 104 94 85 104 101 75 
90 87 70 69 71 44 118 67 55 153 68 71 
169 72 69 201 74 87 198 75 71 216 70 68 
214 68 60 200 66 57 216 70 68 231 69 70 
231 69 70 231 69 70 228 66 59 231 69 70 
214 68 60 153 59 42 135 59 43 133 59 52 
133 59 52 133 59 52 135 59 43 124 58 45 
124 58 45 124 58 45 121 59 50 124 58 45 
124 58 45 124 58 45 117 55 44 117 55 44 
117 55 44 117 55 44 105 54 44 118 67 55 
135 87 74 149 84 76 149 84 76 117 109 82 
89 115 80 89 104 71 72 87 56 56 66 43 
58 57 41 59 59 51 54 59 51 58 57 41 
85 106 60 115 153 87 120 166 88 115 153 87 
94 132 71 94 132 71 101 136 74 94 132 71 
106 99 84 106 99 84 106 99 84 106 99 84 
104 101 75 106 99 84 106 99 84 106 99 84 
106 99 84 113 102 85 104 94 85 104 94 85 
106 102 103 172 173 145 176 177 176 123 121 105 
56 66 43 51 60 44 58 57 41 67 59 50 
87 74 56 169 72 69 216 70 68 217 56 55 
216 70 68 216 70 68 216 70 68 216 70 68 
214 68 60 214 68 60 214 68 60 183 59 51 
133 59 52 121 65 45 135 59 43 135 59 43 
124 58 45 135 59 43 124 58 45 124 58 45 
124 58 45 121 59 50 117 55 44 121 59 50 
121 59 50 117 55 44 105 54 44 105 54 44 
96 46 36 121 59 50 149 84 76 146 88 85 
135 102 82 90 87 70 72 87 56 56 66 43 
57 68 53 72 70 55 57 68 53 51 60 44 
54 55 51 51 60 44 72 87 56 115 153 87 
120 166 88 101 136 74 89 120 69 101 136 74 
94 132 71 89 120 69 106 99 84 106 99 84 
106 99 84 106 99 84 106 99 84 106 99 84 
106 99 84 113 102 85 106 99 84 104 94 85 
104 94 85 135 145 114 209 209 206 254 254 253 
254 254 253 235 217 208 162 145 124 69 71 44 
56 66 43 54 59 51 45 43 43 87 74 56 
197 105 149 204 87 84 221 59 52 231 69 70 
233 61 69 216 70 68 216 70 68 214 68 60 
214 68 60 185 68 55 135 59 43 135 59 43 
124 58 45 135 59 43 124 58 45 124 58 45 
121 59 50 121 59 50 121 59 50 117 55 44 
105 54 44 117 55 44 105 54 44 105 54 44 
105 54 44 105 54 44 96 46 36 117 55 44 
146 88 85 119 88 74 72 70 55 57 68 53 
51 51 45 45 46 49 45 54 42 56 66 43 
57 68 53 54 59 51 45 50 44 58 51 45 
69 71 44 115 153 87 109 149 84 89 120 69 
89 120 69 94 132 71 94 132 71 89 120 69 
106 99 84 106 99 84 106 99 84 106 99 84 
106 99 84 106 99 84 106 99 84 113 102 85 
106 99 84 113 102 85 106 102 103 169 167 217 
254 254 253 254 254 253 254 254 253 252 250 245 
241 234 213 151 165 124 72 87 56 68 57 45 
77 75 72 142 150 142 250 250 233 241 234 213 
213 111 113 199 60 51 200 66 57 218 61 67 
217 56 55 214 68 60 214 68 60 200 66 57 
152 61 52 124 58 45 124 58 45 124 58 45 
124 58 45 124 58 45 121 59 50 121 59 50 
121 59 50 106 58 51 105 54 44 105 54 44 
106 58 51 106 58 51 105 54 44 96 46 36 
89 43 31 106 58 51 119 88 74 72 70 55 
51 60 44 51 60 44 54 59 51 54 59 51 
54 59 51 45 54 42 57 68 53 57 68 53 
51 60 44 42 41 39 69 71 44 123 155 104 
94 132 71 89 120 69 89 120 69 89 120 69 
101 136 74 89 104 71 106 99 84 106 99 84 
106 99 84 106 99 84 106 99 84 106 99 84 
106 99 84 113 102 85 106 99 84 104 101 75 
106 102 103 176 177 176 241 242 242 254 254 253 
250 250 233 250 250 233 250 250 233 235 217 208 
117 109 82 72 70 55 142 150 142 244 231 232 
254 254 253 254 254 253 254 254 253 225 170 164 
169 72 69 180 59 44 198 75 71 200 66 57 
216 70 68 185 68 55 133 59 52 136 67 54 
121 59 50 133 59 52 124 58 45 121 59 50 
121 59 50 121 59 50 105 54 44 106 58 51 
105 54 44 106 58 51 105 54 44 105 54 44 
105 54 44 106 58 51 105 54 44 115 84 77 
54 59 51 51 51 45 51 51 45 58 51 45 
51 60 44 45 54 42 51 60 44 45 54 42 
51 60 44 57 68 53 57 68 53 45 54 42 
72 87 56 107 142 104 75 88 68 74 101 57 
74 101 57 89 115 80 94 132 71 72 87 56 
105 102 87 105 102 87 105 102 87 105 102 87 
105 102 87 105 102 87 105 102 87 113 102 85 
106 99 84 106 102 103 176 177 176 217 226 232 
254 254 253 254 254 253 252 250 245 252 250 245 
250 250 233 232 212 188 103 120 87 123 121 105 
209 209 206 254 254 253 254 254 253 254 254 253 
254 254 253 254 254 253 241 234 213 177 109 89 
180 59 44 199 60 51 200 66 57 167 68 53 
136 67 54 133 59 52 133 59 52 124 58 45 
121 59 50 117 55 44 117 55 44 105 54 44 
106 58 51 105 54 44 106 58 51 105 54 44 
106 58 51 105 54 44 106 58 51 101 70 56 
135 102 82 105 102 87 45 50 44 51 51 45 
51 60 44 45 54 42 51 51 45 45 50 44 
45 50 44 45 50 44 45 50 44 45 50 44 
57 68 53 54 59 51 57 68 53 75 88 68 
72 87 56 89 120 69 74 101 57 89 115 80 
89 115 80 57 68 53 105 102 87 105 102 87 
105 102 87 105 102 87 105 102 87 105 102 87 
105 102 87 105 102 87 105 102 87 119 133 117 
217 226 232 254 254 253 254 254 253 252 250 245 
233 235 217 233 235 217 250 250 233 209 206 179 
172 173 145 209 209 206 241 242 242 254 254 253 
254 254 253 254 254 253 254 254 253 254 254 253 
254 254 253 252 250 245 207 174 150 167 68 53 
183 59 51 183 59 51 152 61 52 115 84 77 
118 67 55 106 58 51 118 67 55 106 58 51 
106 58 51 106 58 51 121 59 50 105 54 44 
105 54 44 106 58 51 106 58 51 101 70 56 
101 70 56 87 74 56 135 145 114 75 88 68 
45 50 44 51 60 44 45 50 44 51 60 44 
45 50 44 45 50 44 51 51 45 45 50 44 
45 50 44 45 50 44 45 54 42 46 52 48 
56 66 43 56 66 43 57 68 53 57 68 53 
72 87 56 89 115 80 89 115 80 46 52 48 
105 102 87 105 102 87 105 102 87 105 102 87 
105 102 87 105 102 87 105 102 87 113 102 85 
105 102 87 109 111 115 209 209 206 254 254 253 
254 254 253 252 250 245 233 235 217 233 235 217 
210 229 198 235 217 208 231 228 230 254 254 253 
254 254 253 254 254 253 254 254 253 254 254 253 
254 254 253 254 254 253 254 254 253 254 254 253 
254 254 253 232 212 188 177 109 89 170 60 49 
147 61 44 135 59 43 106 58 51 121 59 50 
118 67 55 115 84 77 121 59 50 106 58 51 
106 58 51 106 58 51 106 58 51 88 59 54 
68 57 45 88 84 59 88 84 59 99 85 59 
103 120 87 56 66 43 51 51 45 51 60 44 
54 59 51 51 60 44 45 50 44 45 50 44 
45 50 44 45 50 44 45 50 44 45 50 44 
45 50 44 45 54 42 45 54 42 57 68 53 
57 68 53 56 66 43 57 68 53 90 104 83 
90 104 83 45 50 44 105 102 87 105 102 87 
105 102 87 105 102 87 105 102 87 106 99 84 
106 102 103 105 102 87 103 120 87 109 111 115 
187 197 201 254 254 253 254 254 253 252 250 245 
250 250 233 210 229 198 232 212 188 231 228 230 
252 250 245 254 254 253 254 254 253 254 254 253 
254 254 253 254 254 253 254 254 253 254 254 253 
254 254 253 254 254 253 254 254 253 254 254 253 
250 250 233 209 206 179 147 107 90 121 65 45 
105 54 44 105 54 44 105 54 44 106 58 51 
106 58 51 106 58 51 101 70 56 101 70 56 
87 74 56 104 101 75 69 71 44 56 66 43 
69 71 44 117 109 82 89 104 71 51 60 44 
54 59 51 54 59 51 54 59 51 54 59 51 
59 59 51 59 59 51 54 59 51 54 59 51 
45 50 44 45 50 44 42 41 39 45 50 44 
45 46 49 46 52 48 57 68 53 57 68 53 
56 66 43 72 87 56 77 75 72 46 52 48 
106 99 84 105 102 87 105 102 87 105 102 87 
105 102 87 106 99 84 113 102 85 113 102 85 
105 102 87 109 111 115 187 197 201 254 254 253 
254 254 253 252 250 245 250 250 233 209 206 179 
209 206 179 231 228 230 254 254 253 254 254 253 
254 254 253 254 254 253 254 254 253 254 254 253 
254 254 253 254 254 253 254 254 253 252 250 245 
254 254 253 254 254 253 254 254 253 254 254 253 
254 254 253 250 250 233 235 217 208 201 185 167 
99 85 59 83 68 46 92 77 60 92 77 60 
87 74 56 87 74 56 72 87 56 104 101 75 
69 71 44 56 66 43 67 87 45 104 101 75 
101 91 72 72 70 55 59 59 51 57 68 53 
59 59 51 57 68 53 57 68 53 60 70 76 
59 59 51 57 68 53 59 59 51 54 59 51 
46 52 48 45 50 44 45 50 44 45 46 49 
45 54 42 57 68 53 57 68 53 57 68 53 
57 68 53 56 66 43 90 104 83 90 104 83 
105 102 87 105 102 87 105 102 87 113 102 85 
105 102 87 106 102 103 89 115 80 124 141 132 
217 226 232 252 250 245 252 250 245 241 234 213 
210 229 198 201 185 167 196 188 184 231 228 230 
254 254 253 254 254 253 254 254 253 254 254 253 
254 254 253 254 254 253 254 254 253 254 254 253 
254 254 253 254 254 253 252 250 245 244 231 232 
254 254 253 254 254 253 254 254 253 254 254 253 
250 250 233 241 234 213 104 101 75 83 68 46 
88 84 59 83 68 46 87 74 56 72 87 56 
72 87 56 69 71 44 72 87 56 85 106 60 
104 101 75 88 84 59 88 84 59 88 84 59 
72 70 55 72 70 55 59 59 51 57 68 53 
57 68 53 59 59 51 57 68 53 57 68 53 
57 68 53 60 70 76 57 68 53 57 68 53 
54 59 51 56 66 43 74 101 57 74 101 57 
57 68 53 57 68 53 75 88 68 57 68 53 
